<?xml version="1.0" encoding="utf-8"?>
<!-- Generator: Adobe Illustrator 24.2.3, SVG Export Plug-In . SVG Version: 6.00 Build 0)  -->
<svg version="1.1" id="Layer_1" xmlns="http://www.w3.org/2000/svg" xmlns:xlink="http://www.w3.org/1999/xlink" x="0px" y="0px"
	 viewBox="0 0 284.4 341.4" style="enable-background:new 0 0 284.4 341.4;" xml:space="preserve">
<style type="text/css">
	.st0{fill:#F3F3F1;}
	.st1{fill:#F94D1C;}
	.st2{fill:#D5DBE1;}
</style>
<path class="st0" d="M245.3,330.7H39.1c-15.7,0-28.4-12.7-28.4-28.4V39.1c0-15.7,12.7-28.4,28.4-28.4h206.2
	c15.7,0,28.4,12.7,28.4,28.4v263.1C273.8,318,261,330.7,245.3,330.7L245.3,330.7z"/>
<path class="st1" d="M216.9,103.1H67.5c-7.9,0-14.2-6.4-14.2-14.2V67.6c0-7.9,6.4-14.2,14.2-14.2h149.3c7.9,0,14.2,6.4,14.2,14.2
	v21.3C231.1,96.8,224.7,103.1,216.9,103.1z"/>
<path class="st2" d="M42.6,302.3V39.1c0-15.7,12.7-28.4,28.4-28.4H39c-15.7,0-28.4,12.7-28.4,28.4v263.1c0,15.7,12.7,28.4,28.4,28.4
	h32C55.4,330.7,42.6,318,42.6,302.3L42.6,302.3z"/>
<path d="M245.3,341.4H39.1C17.5,341.4,0,323.9,0,302.3V39.1C0,17.5,17.5,0,39.1,0h206.2c21.6,0,39.1,17.5,39.1,39.1v263.1
	C284.4,323.8,266.9,341.4,245.3,341.4L245.3,341.4z M39.1,21.4c-9.8,0-17.8,8-17.8,17.8v263.1c0,9.8,8,17.8,17.8,17.8h206.2
	c9.8,0,17.8-8,17.8-17.8V39.1c0-9.8-8-17.8-17.8-17.8L39.1,21.4L39.1,21.4z M216.9,113.8H67.5c-13.7,0-24.9-11.2-24.9-24.9V67.6
	c0-13.7,11.2-24.9,24.9-24.9h149.3c13.7,0,24.9,11.2,24.9,24.9v21.3C241.8,102.6,230.6,113.8,216.9,113.8z M67.5,64
	c-2,0-3.6,1.6-3.6,3.6v21.3c0,2,1.6,3.6,3.6,3.6h149.3c2,0,3.6-1.6,3.6-3.6V67.6c0-2-1.6-3.6-3.6-3.6H67.5z M74.6,142.3h21.3v56.9
	H74.6V142.3L74.6,142.3z"/>
<path d="M56.9,160h56.9v21.3H56.9V160z M170.6,163.6h56.9v21.3h-56.9V163.6z M170.6,227.6h56.9v21.3h-56.9V227.6z M170.6,263.1h56.9
	v21.3h-56.9V263.1z M52.4,273.8l50.6-50.6l15.1,15.1l-50.6,50.6L52.4,273.8z"/>
<path d="M52.4,238.2l15.1-15.1l50.6,50.6L103,288.8L52.4,238.2L52.4,238.2z"/>
</svg>
