<svg id="Layer_1" data-name="Layer 1" xmlns="http://www.w3.org/2000/svg" viewBox="0 0 142.39 142.39"><defs><style>.cls-1{fill:#f63;}.cls-2{fill:#09544f;}.cls-3{fill:#fff;}</style></defs><rect class="cls-1" width="142.39" height="142.39" rx="14.66"/><path class="cls-2" d="M84,84.59v24.74a7.57,7.57,0,0,1-7.57,7.57H33.39a7.56,7.56,0,0,1-7.56-7.57V66.27a7.56,7.56,0,0,1,7.56-7.57H58v20a5.89,5.89,0,0,0,5.89,5.89Z"/><path class="cls-3" d="M116.15,34.53V76.64a8,8,0,0,1-8,8H84v-20a5.92,5.92,0,0,0-5.92-5.92H58V34.53c0-4.39,3.56-8,6-8h42.2C112.59,26.58,116.15,30.14,116.15,34.53Z"/></svg>