<svg viewBox="0 0 48 48" fill="none" xmlns="http://www.w3.org/2000/svg">
<path d="M0 11.2941C0 5.05655 5.05655 0 11.2941 0H36.7059C42.9435 0 48 5.05655 48 11.2941V36.7059C48 42.9435 42.9435 48 36.7059 48H11.2941C5.05655 48 0 42.9435 0 36.7059V11.2941Z" fill="#FFB500"/>
<path d="M30.3445 10.6691V15.9589C30.3331 16.4948 30.5342 17.0133 30.9039 17.4014C31.2736 17.7894 31.7818 18.0153 32.3176 18.0298H37.633C38.1116 18.0198 38.5666 17.8202 38.8983 17.475C39.2299 17.1299 39.411 16.6672 39.4019 16.1886V10.7116C39.4093 10.4386 39.3625 10.1668 39.2644 9.91191C39.1663 9.65702 39.0187 9.42406 38.8302 9.22644C38.6417 9.02882 38.4159 8.87045 38.1659 8.76044C37.9159 8.65043 37.6466 8.59096 37.3736 8.58545H32.3176C32.0512 8.59261 31.7888 8.6522 31.5455 8.7608C31.3021 8.86941 31.0825 9.02491 30.8993 9.21841C30.7161 9.41192 30.5728 9.63963 30.4776 9.88854C30.3824 10.1375 30.3372 10.4027 30.3445 10.6691Z" fill="#09544F"/>
<path d="M8.59766 25.8838V37.1439C8.59766 38.3941 9.49489 39.4019 10.6005 39.4019H15.9414C16.4435 39.3712 16.913 39.1427 17.247 38.7665C17.581 38.3903 17.7522 37.897 17.7231 37.3948V25.9391C17.7231 24.6634 16.8089 23.6386 15.682 23.6386H10.5792C9.49489 23.6301 8.59766 24.6379 8.59766 25.8838Z" fill="white"/>
<path d="M19.6328 15.691V32.4323C19.6328 33.8398 20.5215 34.7286 21.6101 34.7286H26.8787C27.8483 34.7286 28.6349 33.9674 28.6349 32.7172V15.7335C28.6349 14.3005 27.7334 13.5691 26.6193 13.5691H21.6101C20.5215 13.5776 19.6328 14.2835 19.6328 15.691Z" fill="white"/>
</svg>
