<svg viewBox="0 0 48 48" fill="none" xmlns="http://www.w3.org/2000/svg">
<path d="M0 11.2941C0 5.05655 5.05655 0 11.2941 0H36.7059C42.9435 0 48 5.05655 48 11.2941V36.7059C48 42.9435 42.9435 48 36.7059 48H11.2941C5.05655 48 0 42.9435 0 36.7059V11.2941Z" fill="#00BE40"/>
<path d="M38.5549 30.3793H9.5332V32.6874H38.5549V30.3793Z" fill="white"/>
<path d="M17.4537 18.872V16.5244H9.5332V27.482H12.4275V23.5855H16.904V21.2348H12.4275V18.872H17.4537Z" fill="white"/>
<path d="M26.1186 21.7996C27.2757 21.2651 27.8861 20.4208 27.8861 19.37C27.8861 17.5995 26.5741 16.5365 24.3632 16.5365H18.7568V27.4819H24.4239C26.8353 27.4819 28.2748 26.34 28.2748 24.3993C28.2748 23.145 27.4761 22.2066 26.1186 21.7996ZM21.5904 18.7474H23.8286C24.6426 18.7474 25.0799 19.121 25.0799 19.8134C25.0799 20.5059 24.6426 20.8764 23.8286 20.8764H21.5904V18.7474ZM24.02 25.2588H21.5904V23.0813H24.0473C24.8612 23.0813 25.3168 23.47 25.3168 24.208C25.3168 24.9035 24.8612 25.2588 24.0169 25.2588H24.02Z" fill="white"/>
<path d="M35.2598 20.8279L33.9417 20.6517C32.6419 20.4634 32.2592 20.1446 32.2592 19.5402C32.2592 18.9358 32.7664 18.5228 33.8962 18.5228C34.9409 18.5228 35.4542 18.9085 35.7001 19.8621L38.4547 19.5068C38.0508 17.3505 36.5019 16.3027 33.9751 16.3027C31.1477 16.3027 29.289 17.7149 29.289 19.8743C29.289 21.7299 30.4157 22.8111 32.7208 23.1299L34.0996 23.3182C35.5604 23.5278 35.9219 23.8588 35.9219 24.4966C35.9219 25.1344 35.3813 25.514 34.0996 25.514C33.6405 25.5351 33.1873 25.4031 32.8113 25.1386C32.4353 24.8742 32.1578 24.4924 32.0223 24.0532L29.1523 24.4844C29.617 26.7167 31.3147 27.7341 34.0116 27.7341C37.0759 27.7341 38.886 26.416 38.886 24.1777C38.8738 22.2097 37.7684 21.1923 35.2598 20.8279Z" fill="white"/>
</svg>
