<?xml version="1.0" encoding="utf-8"?>
<!-- Generator: Adobe Illustrator 24.2.3, SVG Export Plug-In . SVG Version: 6.00 Build 0)  -->
<svg version="1.1" id="Layer_1" xmlns="http://www.w3.org/2000/svg" xmlns:xlink="http://www.w3.org/1999/xlink" x="0px" y="0px"
	 viewBox="0 0 305.8 341.4" style="enable-background:new 0 0 305.8 341.4;" xml:space="preserve">
<style type="text/css">
	.st0{fill:#F3F3F1;}
	.st1{fill:#F94D1C;}
	.st2{fill:#D5DBE1;}
</style>
<path class="st0" d="M53.3,231.1H24.9c-7.9,0-14.2-6.4-14.2-14.2V110.3c0-7.9,6.4-14.2,14.2-14.2h28.4c7.9,0,14.2,6.4,14.2,14.2V217
	C67.5,224.8,61.2,231.1,53.3,231.1z M280.9,188.5h-28.4c-7.9,0-14.2-6.4-14.2-14.2V67.6c0-7.9,6.4-14.2,14.2-14.2h28.4
	c7.9,0,14.2,6.4,14.2,14.2v106.7C295.1,182.1,288.7,188.5,280.9,188.5L280.9,188.5z"/>
<path class="st1" d="M167.1,273.8h-28.4c-7.9,0-14.2-6.4-14.2-14.2V152.9c0-7.9,6.4-14.2,14.2-14.2h28.4c7.9,0,14.2,6.4,14.2,14.2
	v106.7C181.3,267.4,174.9,273.8,167.1,273.8z"/>
<path class="st2" d="M42.6,216.9V110.3c0-7.2,5.5-13,12.4-13.9c-0.6-0.1-1.2-0.4-1.8-0.4H24.8c-7.9,0-14.2,6.4-14.2,14.2v106.7
	c0,7.9,6.4,14.2,14.2,14.2h28.5c0.6,0,1.2-0.3,1.8-0.4C48.1,229.9,42.6,224.1,42.6,216.9z M270.2,174.3V67.6c0-7.2,5.5-13,12.4-13.9
	c-0.6-0.1-1.2-0.4-1.8-0.4h-28.4c-7.9,0-14.2,6.4-14.2,14.2v106.7c0,7.9,6.4,14.2,14.2,14.2h28.4c0.6,0,1.2-0.3,1.8-0.4
	C275.7,187.2,270.2,181.5,270.2,174.3z"/>
<path d="M53.3,241.8H24.9C11.2,241.8,0,230.6,0,216.9V110.3c0-13.7,11.2-24.9,24.9-24.9h28.4c13.7,0,24.9,11.2,24.9,24.9V217
	C78.2,230.6,67,241.8,53.3,241.8z M24.9,106.7c-2,0-3.6,1.6-3.6,3.6V217c0,2,1.6,3.6,3.6,3.6h28.4c2,0,3.6-1.6,3.6-3.6V110.3
	c0-2-1.6-3.6-3.6-3.6C53.3,106.7,24.9,106.7,24.9,106.7z"/>
<path d="M28.4,0h21.3v106.7H28.4V0z M28.4,220.5h21.3v120.9H28.4V220.5z M167.1,284.5h-28.4c-13.7,0-24.9-11.2-24.9-24.9V152.9
	c0-13.7,11.2-24.9,24.9-24.9h28.4c13.7,0,24.9,11.2,24.9,24.9v106.7C192,273.3,180.8,284.5,167.1,284.5L167.1,284.5z M138.6,149.4
	c-2,0-3.6,1.6-3.6,3.6v106.7c0,2,1.6,3.6,3.6,3.6H167c2,0,3.6-1.6,3.6-3.6V152.9c0-2-1.6-3.6-3.6-3.6h-28.4L138.6,149.4L138.6,149.4
	z"/>
<path d="M142.2,0h21.3v149.3h-21.3V0z M142.2,263.1h21.3v78.2h-21.3V263.1L142.2,263.1z M280.9,199.1h-28.4
	c-13.7,0-24.9-11.2-24.9-24.9V67.6c0-13.7,11.2-24.9,24.9-24.9h28.4c13.7,0,24.9,11.2,24.9,24.9v106.7
	C305.7,188,294.6,199.1,280.9,199.1L280.9,199.1z M252.4,64c-2,0-3.6,1.6-3.6,3.6v106.7c0,2,1.6,3.6,3.6,3.6h28.4
	c2,0,3.6-1.6,3.6-3.6V67.6c0-2-1.6-3.6-3.6-3.6H252.4z"/>
<path d="M256,0h21.3v64H256V0z M256,177.8h21.3v163.6H256V177.8z"/>
</svg>
